<svg xmlns="http://www.w3.org/2000/svg" viewBox="0 0 32 32" fill="none">
  <rect width="32" height="32" rx="6" fill="#18181b"/>
  <path
    fill="#f4f4f5"
    d="M16 6.5c-2.2 0-4.1 1.2-5.1 3-.6-.3-1.3-.5-2-.5-2.1 0-3.8 1.6-3.9 3.6-.9 1.3-1.4 2.8-1.4 4.4 0 5.2 4.6 8.5 12.4 8.5s12.4-3.3 12.4-8.5c0-1.6-.5-3.1-1.4-4.4-.1-2-1.8-3.6-3.9-3.6-.7 0-1.4.2-2 .5-1-1.8-2.9-3-5.1-3zm-5.2 7.2a1.3 1.3 0 110 2.6 1.3 1.3 0 010-2.6zm10.4 0a1.3 1.3 0 110 2.6 1.3 1.3 0 010-2.6zM12.2 19c.9 1.1 2.2 1.7 3.8 1.7s2.9-.6 3.8-1.7c.2-.3 0-.7-.3-.8-.3-.1-.6 0-.8.2-.7.8-1.6 1.2-2.7 1.2s-2-.4-2.7-1.2c-.2-.2-.5-.3-.8-.2-.3.1-.5.5-.3.8z"
  />
  <path
    fill="#a1a1aa"
    d="M9.5 8.2c-.4-1.2.1-2 .9-2.4.3 1 .9 1.8 1.7 2.4-.9.1-1.8.4-2.6 1zm13 0c.4-1.2-.1-2-.9-2.4-.3 1-.9 1.8-1.7 2.4.9.1 1.8.4 2.6 1z"
  />
</svg>
